<svg version="1.0" xmlns="http://www.w3.org/2000/svg"
 width="1900.000000pt" height="1900.000000pt" viewBox="0 0 1900.000000 1900.000000"
 preserveAspectRatio="xMidYMid meet">

<g transform="translate(0.000000,1900.000000) scale(0.100000,-0.100000)"
fill="#000000" stroke="none">
<path d="M0 9500 l0 -9500 9500 0 9500 0 0 9500 0 9500 -9500 0 -9500 0 0
-9500z m9725 7710 c109 -190 289 -500 400 -690 111 -190 266 -457 345 -595 79
-137 192 -335 253 -440 153 -264 259 -448 476 -825 103 -179 228 -395 278
-480 102 -175 513 -887 821 -1420 687 -1190 1373 -2379 1610 -2790 151 -261
375 -648 497 -860 122 -212 260 -450 307 -530 46 -80 185 -320 308 -535 122
-214 263 -459 313 -543 49 -84 86 -156 82 -160 -9 -9 -2353 -13 -2419 -4 l-50
7 -114 200 c-63 110 -162 281 -220 380 -147 251 -276 472 -517 890 -115 198
-243 419 -285 490 -100 168 -618 1056 -700 1200 -34 61 -107 184 -160 275 -54
91 -158 271 -232 400 -152 264 -191 331 -338 580 -170 287 -192 325 -335 570
-75 129 -186 316 -245 415 -60 99 -141 238 -182 309 -40 71 -78 131 -84 133
-6 2 -34 -40 -64 -94 -29 -54 -88 -161 -130 -238 -43 -77 -128 -234 -190 -350
-62 -115 -130 -239 -150 -275 -21 -36 -168 -306 -328 -600 -254 -469 -343
-633 -469 -860 -30 -54 -124 -227 -303 -555 -126 -230 -351 -640 -442 -805
-41 -74 -104 -189 -140 -255 -36 -66 -130 -237 -210 -380 -80 -143 -166 -300
-193 -350 -26 -49 -83 -153 -125 -230 -42 -77 -108 -196 -145 -265 -75 -136
-396 -709 -451 -803 -19 -32 -34 -62 -34 -66 0 -5 -7 -14 -15 -21 -24 -20 -17
-66 21 -138 75 -137 270 -476 514 -892 56 -96 114 -195 127 -220 14 -25 29
-49 33 -55 4 -5 19 -30 32 -55 14 -25 79 -138 145 -250 66 -113 147 -252 180
-310 33 -58 112 -195 175 -305 144 -249 228 -402 228 -416 0 -8 -25 -10 -71
-7 -59 3 -75 8 -89 26 -20 24 -237 386 -427 712 -66 113 -189 322 -273 465
-84 143 -187 319 -229 390 -103 176 -526 851 -661 1055 -117 176 -307 477
-542 860 -80 129 -227 368 -328 530 -408 659 -410 663 -717 1180 -60 102 -125
212 -143 245 -18 33 -48 82 -67 109 -21 30 -31 52 -25 58 5 5 46 8 92 6 l84
-3 114 -195 c63 -107 153 -260 201 -339 47 -79 123 -207 167 -285 45 -77 87
-142 92 -144 14 -4 68 82 135 214 30 60 65 127 77 149 12 22 62 112 110 200
48 88 224 408 392 710 168 303 380 687 473 855 220 401 211 384 342 620 63
112 180 324 260 470 80 146 258 468 396 715 137 248 286 518 332 600 346 628
738 1337 860 1555 83 148 259 466 503 910 47 85 129 234 182 330 54 96 158
285 233 420 74 135 143 261 154 280 11 19 71 127 133 240 151 272 139 255 155
239 6 -8 101 -169 210 -359z m-131 -4901 c24 -46 120 -217 378 -674 25 -44
164 -287 310 -540 145 -253 432 -755 637 -1115 206 -360 415 -725 466 -810 50
-85 190 -328 310 -540 120 -212 354 -619 520 -905 166 -286 338 -583 382 -660
44 -77 139 -243 212 -368 72 -126 131 -233 131 -238 0 -5 -606 -8 -1552 -7
l-1553 3 -86 145 c-173 292 -258 438 -332 565 -67 118 -147 254 -528 902 -66
111 -119 204 -119 206 0 2 655 6 1455 9 800 2 1457 6 1460 9 9 9 -272 519
-510 924 -97 166 -92 158 -283 495 -215 381 -302 534 -457 805 -174 302 -262
458 -405 710 -62 110 -127 223 -145 250 -17 28 -69 118 -115 200 -124 221
-217 370 -231 370 -6 0 -18 -16 -24 -35 -7 -19 -33 -69 -57 -110 -25 -41 -96
-169 -158 -285 -62 -115 -125 -232 -140 -260 -15 -27 -76 -142 -135 -255 -59
-113 -134 -253 -166 -312 -33 -59 -59 -109 -59 -111 0 -3 -20 -40 -43 -83 -24
-44 -63 -117 -87 -164 -24 -47 -62 -119 -85 -160 -23 -41 -71 -129 -105 -195
-35 -66 -163 -309 -285 -540 -240 -454 -384 -728 -515 -980 -46 -88 -92 -173
-102 -190 -10 -16 -18 -33 -18 -36 0 -3 148 -9 329 -12 181 -4 335 -9 343 -12
19 -8 301 -486 888 -1505 106 -184 257 -445 335 -580 78 -135 255 -441 392
-680 223 -389 350 -608 518 -895 28 -49 104 -178 169 -286 64 -108 116 -204
116 -213 0 -9 -29 -67 -63 -129 -85 -149 -151 -270 -370 -677 -60 -113 -120
-223 -132 -245 -12 -22 -75 -139 -140 -260 -65 -121 -159 -296 -210 -390 -51
-93 -114 -210 -140 -260 -63 -119 -85 -155 -94 -155 -4 0 -13 12 -20 28 -21
47 -138 252 -431 757 -51 88 -162 279 -245 425 -84 146 -194 337 -245 425
-117 202 -274 474 -447 775 -75 129 -155 267 -178 305 -23 39 -86 147 -140
240 -54 94 -151 260 -215 370 -64 110 -138 238 -164 285 -27 47 -119 207 -206
355 -158 271 -307 528 -471 813 -49 85 -89 159 -89 165 0 6 44 92 99 191 54
100 122 226 151 281 82 155 190 357 210 390 9 17 40 74 69 127 28 54 62 117
75 140 13 24 81 151 151 283 70 132 181 337 245 455 65 118 141 260 170 315
29 55 65 123 80 150 15 28 53 100 85 160 32 61 70 133 85 160 15 28 53 100 85
160 67 128 211 396 235 440 9 17 47 89 85 160 37 72 76 144 85 160 10 17 52
95 93 175 97 188 149 287 174 330 20 36 86 160 273 515 76 145 128 241 170
315 38 66 77 138 170 315 72 136 99 177 113 173 7 -3 25 -29 41 -59z m-5053
-4001 c311 -438 680 -950 1154 -1603 552 -761 582 -805 1096 -1618 153 -242
277 -436 352 -548 42 -64 77 -123 77 -132 0 -16 -187 -17 -2570 -17 -2250 0
-2570 2 -2570 15 0 8 37 83 83 167 46 84 132 243 192 353 170 315 233 431 305
560 71 128 146 263 420 765 95 173 218 398 275 500 56 102 121 221 145 265 24
44 111 204 195 355 84 151 228 412 320 580 308 561 331 600 346 600 4 0 85
-109 180 -242z"/>
</g>
</svg>
