<svg fill="none" height="24" viewBox="0 0 24 24" width="24" xmlns="http://www.w3.org/2000/svg">
    <g fill="#0f0f0f">
        <path
            d="m8 7v5c0 .5523-.44772 1-1 1s-1-.4477-1-1v-5c.00458-1.87859 1.76059-3 3.5-3 1.1307 0 1.9437.34086 2.5.83532.5563-.49446 1.3693-.83532 2.5-.83532 1.7387 0 3.4942 1.12063 3.5 2.99875v5.00125c0 .5523-.4477 1-1 1s-1-.4477-1-1v-5.00125c-.0594-.75732-.8404-.99875-1.5-.99875-.6485 0-1.4328.24659-1.5.99875v3.00125c0 .5523-.4477 1-1 1s-1-.4477-1-1v-3c-.0597-.76033-.8469-1-1.5-1-.64847 0-1.43284.24784-1.5 1z"/>
        <path clip-rule="evenodd"
              d="m16 1h-8c-3.92704 0-6.91403 3.02365-7 6.98924v5.01076c0 5.1146 3.55833 10 9 10h5.48c1.3917 0 2.52-1.1283 2.52-2.52 0-1.3668-1.1345-2.4464-2.5-2.48-.2819-.0069-.6164-.0035-.9851.0004-2.0788.0216-5.24695.0546-6.23169-1.7042 4.52459.8297 14.71679 2.2038 14.71679-5.2962v-3c-.0935-3.96467-3.0661-7-7-7zm-13 12v-5.01076c.11577-2.87543 2.1386-4.98924 5-4.98924h8c2.8671 0 4.8776 2.12583 5 5v3c0 6-10.656 3.8052-13.75746 3.0299-.62116-.1553-1.24254.3298-1.24254.9701 0 1.0843.27531 2.0111.8592 2.7553 1.67569 2.1359 5.037 2.1685 7.6592 2.1939.3398.0033.6673.0065.977.0141.2814.007.5046.2361.5046.5167 0 .2872-.2328.52-.52.52h-5.48c-4.34638 0-7-3.984-7-8z"
              fill-rule="evenodd"/>
    </g>
</svg>
