<?xml version="1.0" encoding="iso-8859-1"?>
<svg version="1.1" id="Layer_1" xmlns="http://www.w3.org/2000/svg" xmlns:xlink="http://www.w3.org/1999/xlink" x="0px" y="0px"
     viewBox="0 0 512 512" style="enable-background:new 0 0 512 512;" xml:space="preserve">
<g>
	<g>
		<path d="M476.292,0H35.708C16.018,0,0,16.018,0,35.708v440.584C0,495.982,16.018,512,35.708,512h440.584
			c19.69,0,35.708-16.018,35.708-35.708V35.708C512,16.018,495.982,0,476.292,0z M134.761,434.88
			c-24.967,0-45.207-20.24-45.207-45.207c0-24.967,20.24-45.207,45.207-45.207c24.967,0,45.207,20.24,45.207,45.207
			C179.968,414.64,159.728,434.88,134.761,434.88z M305.703,408.046c0,9.574-7.762,17.335-17.335,17.335h-36.747
			c-9.574,0-17.334-7.76-17.334-17.335v-18.374c0-57.01-46.381-103.39-103.391-103.39h-18.374c-9.574,0-17.334-7.76-17.334-17.334
			v-36.747c0-9.574,7.762-17.334,17.334-17.334h18.374c96.388,0,174.807,78.418,174.807,174.807V408.046z M416.647,425.381h-36.747
			c-9.574,0-17.335-7.76-17.335-17.335v-18.374c0-127.743-103.926-231.669-231.669-231.669h-18.374
			c-9.574,0-17.334-7.76-17.334-17.334v-36.747c0-9.574,7.762-17.334,17.334-17.334h18.374c80.958,0,157.069,31.526,214.313,88.772
			s88.772,133.357,88.772,214.313v18.373h0.001C433.983,417.62,426.221,425.381,416.647,425.381z"/>
	</g>
</g>
  <g>
</g>
  <g>
</g>
  <g>
</g>
  <g>
</g>
  <g>
</g>
  <g>
</g>
  <g>
</g>
  <g>
</g>
  <g>
</g>
  <g>
</g>
  <g>
</g>
  <g>
</g>
  <g>
</g>
  <g>
</g>
  <g>
</g>
</svg>
